<svg width="128" height="128" viewBox="0 0 128 128" fill="none" xmlns="http://www.w3.org/2000/svg">
<path d="M63.391 12.2481C59.169 12.2681 55.139 12.6271 51.591 13.2551C41.141 15.1011 39.245 18.9651 39.245 26.0921V35.5031H63.938V38.6401H29.977C22.801 38.6401 16.517 42.9531 14.551 51.1611C12.283 60.5661 12.183 66.4361 14.551 76.2571C16.306 83.5681 20.498 88.7761 27.675 88.7761H36.166V77.4941C36.166 69.3431 43.217 62.1541 51.592 62.1541H76.257C83.123 62.1541 88.603 56.5001 88.603 49.6061V26.0931C88.603 19.4001 82.957 14.3731 76.257 13.2561C72.013 12.5501 67.612 12.2291 63.391 12.2481ZM50.037 19.8171C52.587 19.8171 54.671 21.9341 54.671 24.5381C54.671 27.1311 52.588 29.2281 50.037 29.2281C47.477 29.2281 45.404 27.1311 45.404 24.5381C45.403 21.9341 47.477 19.8171 50.037 19.8171Z" fill="#5A9FD4"/>
<path d="M91.682 38.6399V49.6059C91.682 58.1059 84.474 65.2609 76.256 65.2609H51.591C44.835 65.2609 39.245 71.0439 39.245 77.8099V101.325C39.245 108.016 45.063 111.953 51.591 113.872C59.407 116.169 66.903 116.585 76.256 113.872C82.472 112.071 88.602 108.449 88.602 101.325V91.9129H63.938V88.7749H100.95C108.126 88.7749 110.802 83.7699 113.298 76.2559C115.876 68.5209 115.765 61.0819 113.298 51.1599C111.524 44.0149 108.137 38.6389 100.95 38.6389H91.682V38.6399ZM77.809 98.1869C80.37 98.1869 82.443 100.284 82.443 102.879C82.443 105.481 80.369 107.598 77.809 107.598C75.259 107.598 73.176 105.481 73.176 102.879C73.176 100.284 75.259 98.1869 77.809 98.1869Z" fill="#FFD43B"/>
</svg>
