<svg width="185" height="185" viewBox="0 0 185 185" fill="none" xmlns="http://www.w3.org/2000/svg">
<path d="M68.9972 3.2879C32.3817 14.5329 -9.71852 23.2596 1.9972 63.2883C13.7129 103.317 28.3651 115.259 40.0808 155.288C51.7965 195.317 134.274 192.3 167.581 155.288C186.797 133.934 179.736 124.006 180.497 95.2883C181.333 63.7538 196.497 20.7881 159.497 17.2883C122.497 13.7884 106.367 -8.18862 68.9972 3.2879Z" fill="#4F4F59"/>
<path d="M105 32.5C102.333 32.5 89.3 37 58.5 55V104.5L105 130L142.5 107L139.5 52.5L105 32.5Z" fill="white"/>
<path d="M155.5 49.5L155.8 49.2999C155.2 48.1999 154.3 47.2 153.4 46.7L105.1 18.9C104.3 18.4 103.2 18.2 102 18.2C100.8 18.2 99.7 18.5 98.9 18.9L50.9 46.7999C49.2 47.7999 48 50.3 48 52.2V107.9C48 109 48.2 110.2 48.9 111.3L48.7 111.4C49.2 112.2 49.9 112.9 50.6 113.3L98.8 141.2C99.6 141.7 100.7 141.9 101.9 141.9C103.1 141.9 104.2 141.6 105 141.2L153 113.3C154.7 112.3 155.9 109.8 155.9 107.9V52.0999C156 51.2999 155.9 50.4 155.5 49.5ZM102 104.5C111.1 104.5 119.1 99.5 123.3 92.1L136.2 99.7C129.4 111.5 116.6 119.5 102 119.5C80.2 119.5 62.5 101.8 62.5 80C62.5 58.2 80.2 40.5 102 40.5C116.7 40.5 129.5 48.6 136.3 60.5L123.3 68C119.1 60.5 111.1 55.5 102 55.5C88.5 55.5 77.5 66.5 77.5 80C77.5 93.5 88.5 104.5 102 104.5Z" fill="#03599C"/>
</svg>
