<svg width="212" height="195" viewBox="0 0 212 195" fill="none" xmlns="http://www.w3.org/2000/svg">
<path d="M182.966 57.7863C197.385 -19.2175 142.055 4.24955 102.572 0.835558C52.9339 -3.4565 6.56042 25.6142 0.331946 71.0213C-4.55867 106.675 46.2089 116.903 46.209 152.838C46.209 204.976 75.5389 186.797 102.572 192.944C156.014 205.096 215.875 161.527 211.803 111.127C209.93 87.9363 178.675 80.7051 182.966 57.7863Z" fill="#4F4F59"/>
<path d="M79.1423 58.6165L90.1423 47.6165L108.142 46.6165L149.642 99.6165L117.642 138.616L90.1423 134.616L79.1423 58.6165Z" fill="white"/>
<path d="M167.884 91.4945L112.767 36.3805C109.595 33.2065 104.447 33.2065 101.27 36.3805L89.8273 47.8265L104.345 62.3445C107.72 61.2055 111.588 61.9695 114.277 64.6585C115.559 65.9411 116.453 67.5585 116.859 69.3257C117.264 71.0929 117.164 72.9385 116.57 74.6515L130.562 88.6455C133.947 87.4785 137.854 88.2325 140.556 90.9405C144.336 94.7175 144.336 100.84 140.556 104.619C139.658 105.518 138.591 106.231 137.418 106.718C136.244 107.204 134.985 107.454 133.715 107.454C132.444 107.454 131.186 107.204 130.012 106.718C128.838 106.231 127.772 105.518 126.873 104.619C125.524 103.269 124.604 101.55 124.229 99.6775C123.855 97.8053 124.042 95.8642 124.768 94.0985L111.72 81.0495L111.718 115.391C112.665 115.857 113.529 116.474 114.277 117.218C118.056 120.995 118.056 127.117 114.277 130.902C110.498 134.679 104.373 134.679 100.598 130.902C96.8203 127.118 96.5103 120.996 100.287 117.218C101.221 116.285 102.142 115.58 103.142 115.108V80.4495C102.142 79.9775 101.222 79.2775 100.286 78.3385C97.4253 75.4785 96.8903 71.2785 98.3583 67.7625L84.1253 53.4495L46.3713 91.2395C43.1963 94.4165 43.2163 99.5645 46.3913 102.74L101.517 157.854C104.69 161.028 109.842 161.028 113.02 157.854L167.88 102.995C171.055 99.8195 171.058 94.6685 167.884 91.4945V91.4945Z" fill="#F34F29"/>
</svg>
