<svg width="149" height="175" viewBox="0 0 149 175" fill="none" xmlns="http://www.w3.org/2000/svg">
<path d="M100.077 6.77767C120.97 25.9134 129.982 4.70101 144.077 29.2774C154.341 47.1724 142.34 55.2214 144.077 75.7776C146.484 104.247 153.002 124.321 139.5 149.5C121 184 107 157 71.5774 170.278C36.155 183.555 17.9225 164.5 7.5 136C-5.69721 99.9124 -0.0962505 78.3598 18.5774 44.7774C36.9232 11.7848 79.1844 -12.358 100.077 6.77767Z" fill="#4F4F59"/>
<path d="M62.6171 112.12C62.6171 112.12 57.8501 114.894 66.0141 115.83C75.9061 116.96 80.9611 116.798 91.8591 114.738C91.8591 114.738 94.7301 116.533 98.7321 118.089C74.2931 128.559 43.4241 117.482 62.6171 112.12ZM59.6291 98.4551C59.6291 98.4551 54.2811 102.414 62.4521 103.26C73.0191 104.351 81.3621 104.44 95.8061 101.66C95.8061 101.66 97.7991 103.685 100.938 104.791C71.3961 113.431 38.4921 105.471 59.6291 98.4551V98.4551Z" fill="#0074BD"/>
<path d="M84.802 75.271C90.827 82.206 83.222 88.441 83.222 88.441C83.222 88.441 98.511 80.55 91.491 70.664C84.932 61.449 79.904 56.872 107.126 41.084C107.126 41.085 64.395 51.754 84.802 75.271V75.271Z" fill="#EA2D2E"/>
<path d="M117.123 122.229C117.123 122.229 120.652 125.139 113.235 127.388C99.133 131.66 54.529 132.948 42.141 127.559C37.69 125.621 46.04 122.934 48.667 122.367C51.406 121.774 52.97 121.882 52.97 121.882C48.017 118.395 20.957 128.732 39.227 131.697C89.048 139.773 130.044 128.06 117.123 122.229V122.229ZM64.912 84.294C64.912 84.294 42.226 89.683 56.879 91.642C63.067 92.47 75.397 92.28 86.89 91.316C96.28 90.527 105.703 88.842 105.703 88.842C105.703 88.842 102.395 90.261 99.999 91.895C76.957 97.956 32.455 95.133 45.268 88.937C56.1 83.698 64.912 84.294 64.912 84.294V84.294ZM105.609 107.041C129.03 94.874 118.2 83.181 110.641 84.756C108.793 85.141 107.964 85.476 107.964 85.476C107.964 85.476 108.652 84.397 109.964 83.933C124.917 78.678 136.415 99.436 105.141 107.658C105.141 107.656 105.5 107.331 105.609 107.041V107.041Z" fill="#0074BD"/>
<path d="M91.491 15.5869C91.491 15.5869 104.459 28.5629 79.188 48.5099C58.922 64.5159 74.567 73.6399 79.181 84.0689C67.35 73.3959 58.672 63.9989 64.493 55.2539C73.041 42.4199 96.722 36.1949 91.491 15.5869Z" fill="#EA2D2E"/>
<path d="M67.214 140.021C89.69 141.458 124.214 139.221 125.031 128.585C125.031 128.585 123.46 132.617 106.454 135.816C87.268 139.428 63.6 139.007 49.567 136.69C49.567 136.691 52.442 139.071 67.214 140.021V140.021Z" fill="#0074BD"/>
</svg>
