<svg width="199" height="208" viewBox="0 0 199 208" fill="none" xmlns="http://www.w3.org/2000/svg">
<path d="M3.50007 70.4999C-14.4999 11.9998 59.0939 -4.7054 111 2.49954C149.342 7.8217 197.286 11.2964 198 49.9995C198.295 65.9952 187.787 72.9558 184 88.4995C175.819 122.079 202.506 147.81 184 177C160.441 214.159 132.361 210.439 89.5 200.5C56.7383 192.903 21.5 224.5 3.49996 157.5C-7.54396 116.391 21.5001 129 3.50007 70.4999Z" fill="#4F4F59"/>
<path d="M36.408 43.408H161.592V168.593H36.408V43.408Z" fill="#F0DB4F"/>
<path d="M151.347 138.736C150.43 133.025 146.706 128.228 135.675 123.755C131.843 121.994 127.571 120.733 126.298 117.829C125.846 116.139 125.786 115.187 126.072 114.164C126.893 110.844 130.856 109.809 133.997 110.761C136.02 111.439 137.935 112.998 139.09 115.485C144.492 111.987 144.481 112.01 148.253 109.606C146.872 107.465 146.135 106.477 145.231 105.561C141.982 101.932 137.555 100.063 130.475 100.206L126.787 100.683C123.253 101.576 119.885 103.431 117.91 105.918C111.984 112.642 113.674 124.41 120.885 129.253C127.989 134.585 138.425 135.798 139.758 140.784C141.055 146.888 135.272 148.864 129.524 148.162C125.288 147.281 122.932 145.128 120.385 141.213C115.697 143.926 115.697 143.926 110.877 146.698C112.02 149.197 113.221 150.328 115.137 152.493C124.205 161.691 146.897 161.239 150.967 147.317C151.132 146.839 152.228 143.651 151.347 138.736V138.736ZM104.462 100.943H92.753L92.705 131.215C92.705 137.653 93.038 143.555 91.991 145.364C90.278 148.922 85.839 148.481 83.816 147.791C81.757 146.779 80.71 145.34 79.497 143.306C79.164 142.722 78.914 142.27 78.83 142.235L69.31 148.065C70.893 151.314 73.225 154.134 76.212 155.966C80.674 158.644 86.671 159.465 92.943 158.025C97.025 156.836 100.547 154.373 102.391 150.624C105.057 145.709 104.485 139.76 104.461 133.18C104.521 122.445 104.462 111.712 104.462 100.943V100.943Z" fill="#323330"/>
</svg>
