<svg width="163" height="164" viewBox="0 0 163 164" fill="none" xmlns="http://www.w3.org/2000/svg">
<path d="M94.4998 3.49856C88.1665 -2.83478 -8.00053 -2.50289 1.4998 48.9986C11.0001 100.5 -0.656345 117.501 30 140C73.5667 171.974 115.269 173.763 143.5 132.498C171.731 91.234 150.947 81.2711 160.5 48.9986C170.053 16.726 132.873 2.23537 94.4998 3.49856Z" fill="#4F4F59"/>
<path d="M80.391 19.2481C76.169 19.2681 72.139 19.6271 68.591 20.2551C58.141 22.1011 56.245 25.9651 56.245 33.0921V42.5031H80.938V45.6401H46.977C39.801 45.6401 33.517 49.9531 31.551 58.1611C29.283 67.5661 29.183 73.4361 31.551 83.2571C33.306 90.5681 37.498 95.7761 44.675 95.7761H53.166V84.4941C53.166 76.3431 60.217 69.1541 68.592 69.1541H93.257C100.123 69.1541 105.603 63.5001 105.603 56.6061V33.0931C105.603 26.4001 99.957 21.3731 93.257 20.2561C89.013 19.5501 84.612 19.2291 80.391 19.2481V19.2481ZM67.037 26.8171C69.587 26.8171 71.671 28.9341 71.671 31.5381C71.671 34.1311 69.588 36.2281 67.037 36.2281C64.477 36.2281 62.404 34.1311 62.404 31.5381C62.403 28.9341 64.477 26.8171 67.037 26.8171V26.8171Z" fill="#5A9FD4"/>
<path d="M108.682 45.6399V56.6059C108.682 65.1059 101.474 72.2609 93.256 72.2609H68.591C61.835 72.2609 56.245 78.0439 56.245 84.8099V108.325C56.245 115.016 62.063 118.953 68.591 120.872C76.407 123.169 83.903 123.585 93.256 120.872C99.472 119.071 105.602 115.449 105.602 108.325V98.9129H80.938V95.7749H117.95C125.126 95.7749 127.802 90.7699 130.298 83.2559C132.876 75.5209 132.765 68.0819 130.298 58.1599C128.524 51.0149 125.137 45.6389 117.95 45.6389H108.682V45.6399ZM94.809 105.187C97.37 105.187 99.443 107.284 99.443 109.879C99.443 112.481 97.369 114.598 94.809 114.598C92.259 114.598 90.176 112.481 90.176 109.879C90.176 107.284 92.259 105.187 94.809 105.187V105.187Z" fill="#FFD43B"/>
</svg>
