<svg width="171" height="194" viewBox="0 0 171 194" fill="none" xmlns="http://www.w3.org/2000/svg">
<path d="M105.314 16.0023C130.718 34.1215 158.5 30.2386 163.846 61.3893C170.219 98.5334 179.982 123.424 153.544 149.774C106.865 196.3 -1.44694 220.005 7.9178 149.774C14.4467 100.811 -19.9995 56.7178 18.6877 26.9907C55.6441 -1.40646 67.3963 -11.0431 105.314 16.0023Z" fill="#4F4F59"/>
<path d="M80 102.4C86.296 102.4 91.4 97.2961 91.4 91.0001C91.4 84.7041 86.296 79.6001 80 79.6001C73.7039 79.6001 68.6 84.7041 68.6 91.0001C68.6 97.2961 73.7039 102.4 80 102.4Z" fill="#61DAFB"/>
<path d="M123.3 72.2001C121.1 71.4001 118.8 70.6001 116.4 69.9001C117 67.5001 117.5 65.1001 117.9 62.8001C120 49.6001 117.7 40.3001 111.3 36.7001C109.4 35.6001 107.3 35.1001 104.9 35.1001C97.9 35.1001 89 40.3001 80 49.0001C71 40.3001 62.1 35.1001 55.1 35.1001C52.7 35.1001 50.6 35.6001 48.7 36.7001C42.3 40.4001 40 49.7001 42.1 62.8001C42.5 65.1001 43 67.5001 43.6 69.9001C41.2 70.6001 38.9 71.3001 36.7 72.2001C24.2 77.0001 17.4 83.6001 17.4 91.0001C17.4 98.4001 24.3 105 36.7 109.8C38.9 110.6 41.2 111.4 43.6 112.1C43 114.5 42.5 116.9 42.1 119.2C40 132.4 42.3 141.7 48.7 145.3C50.6 146.4 52.7 146.9 55.1 146.9C62.2 146.9 71.1 141.7 80 133C89 141.7 97.9 146.9 104.9 146.9C107.3 146.9 109.4 146.4 111.3 145.3C117.7 141.6 120 132.3 117.9 119.2C117.5 116.9 117 114.5 116.4 112.1C118.8 111.4 121.1 110.7 123.3 109.8C135.8 105 142.6 98.4001 142.6 91.0001C142.6 83.6001 135.8 77.0001 123.3 72.2001V72.2001ZM108.5 41.7001C112.6 44.1001 114 51.5001 112.3 62.0001C112 64.1001 111.5 66.3001 110.9 68.6001C105.7 67.4001 100.2 66.6001 94.4 66.1001C91 61.3001 87.5 57.0001 84 53.1001C91.4 45.8001 98.9 40.8001 105 40.8001C106.3 40.8001 107.5 41.1001 108.5 41.7001V41.7001ZM97.3 101C95.5 104.2 93.4 107.4 91.2 110.6C87.5 110.9 83.8 111 80 111C76.1 111 72.4 110.9 68.8 110.6C66.6 107.4 64.6 104.2 62.8 101C60.9 97.7001 59.1 94.3001 57.5 91.0001C59.1 87.7001 60.9 84.3001 62.8 81.0001C64.6 77.8001 66.7 74.6001 68.9 71.4001C72.6 71.1001 76.3 71.0001 80.1 71.0001C84 71.0001 87.7 71.1001 91.3 71.4001C93.5 74.6001 95.5 77.8001 97.3 81.0001C99.2 84.3001 101 87.7001 102.6 91.0001C100.9 94.3001 99.2 97.6001 97.3 101ZM105.6 97.7001C107.1 101.2 108.3 104.6 109.4 108C106 108.8 102.4 109.4 98.6 109.9C99.8 108 101.1 106 102.2 103.9C103.4 101.8 104.5 99.7001 105.6 97.7001ZM80 124.8C77.6 122.2 75.3 119.4 73.1 116.5C75.4 116.6 77.7 116.7 80 116.7C82.3 116.7 84.6 116.6 86.9 116.5C84.7 119.4 82.4 122.2 80 124.8ZM61.4 109.8C57.6 109.3 54 108.7 50.6 107.9C51.7 104.6 52.9 101.1 54.4 97.6001C55.5 99.6001 56.6 101.7 57.8 103.7C59 105.9 60.2 107.8 61.4 109.8V109.8ZM54.4 84.3001C52.9 80.8001 51.7 77.4001 50.6 74.0001C54 73.2001 57.6 72.6001 61.4 72.1001C60.2 74.0001 58.9 76.0001 57.8 78.1001C56.6 80.2001 55.5 82.3001 54.4 84.3001V84.3001ZM80 57.2001C82.4 59.8001 84.7 62.6001 86.9 65.5001C84.6 65.4001 82.3 65.3001 80 65.3001C77.7 65.3001 75.4 65.4001 73.1 65.5001C75.3 62.6001 77.6 59.8001 80 57.2001ZM102.2 78.2001L98.6 72.2001C102.4 72.7001 106 73.3001 109.4 74.1001C108.3 77.4001 107.1 80.9001 105.6 84.4001C104.5 82.3001 103.4 80.2001 102.2 78.2001ZM47.7 62.0001C46 51.5001 47.4 44.1001 51.5 41.7001C52.5 41.1001 53.7 40.8001 55 40.8001C61 40.8001 68.5 45.7001 76 53.1001C72.5 56.9001 69 61.3001 65.6 66.1001C59.8 66.6001 54.3 67.5001 49.1 68.6001C48.5 66.3001 48.1 64.1001 47.7 62.0001V62.0001ZM23 91.0001C23 86.3001 28.7 81.3001 38.7 77.6001C40.7 76.8001 42.9 76.1001 45.1 75.5001C46.7 80.5001 48.7 85.8001 51.1 91.1001C48.7 96.4001 46.6 101.6 45.1 106.6C31.3 102.6 23 96.6001 23 91.0001ZM51.5 140.3C47.4 137.9 46 130.5 47.7 120C48 117.9 48.5 115.7 49.1 113.4C54.3 114.6 59.8 115.4 65.6 115.9C69 120.7 72.5 125 76 128.9C68.6 136.2 61.1 141.2 55 141.2C53.7 141.2 52.5 140.9 51.5 140.3ZM112.3 120C114 130.5 112.6 137.9 108.5 140.3C107.5 140.9 106.3 141.2 105 141.2C99 141.2 91.5 136.3 84 128.9C87.5 125.1 91 120.7 94.4 115.9C100.2 115.4 105.7 114.5 110.9 113.4C111.5 115.7 111.9 117.9 112.3 120V120ZM121.3 104.4C119.3 105.2 117.1 105.9 114.9 106.5C113.3 101.5 111.3 96.2001 108.9 90.9001C111.3 85.6001 113.4 80.4001 114.9 75.4001C128.7 79.4001 137 85.4001 137 91.0001C137 95.7001 131.2 100.7 121.3 104.4Z" fill="#61DAFB"/>
</svg>
