<svg width="284" height="280" viewBox="0 0 284 280" fill="none" xmlns="http://www.w3.org/2000/svg">
<g filter="url(#filter0_d_138_260)">
<path d="M232.797 98.4679C236.027 161.799 228.616 179.02 173.07 213.955C117.523 248.889 67.8685 196.366 37.0327 151.54C6.19693 106.715 35.0319 50.6386 97.8263 48.9902C160.621 47.3417 229.566 35.1369 232.797 98.4679Z" fill="#4F4F59"/>
</g>
<path d="M48 151H209" stroke="#D9D9D9"/>
<path d="M79.4493 136.336C76.9853 136.336 74.7773 135.936 72.8253 135.136C70.8733 134.336 69.3053 133.152 68.1213 131.584C66.9693 130.016 66.3613 128.128 66.2973 125.92H75.0333C75.1613 127.168 75.5933 128.128 76.3293 128.8C77.0653 129.44 78.0253 129.76 79.2093 129.76C80.4253 129.76 81.3853 129.488 82.0893 128.944C82.7933 128.368 83.1453 127.584 83.1453 126.592C83.1453 125.76 82.8573 125.072 82.2813 124.528C81.7373 123.984 81.0493 123.536 80.2173 123.184C79.4173 122.832 78.2653 122.432 76.7613 121.984C74.5853 121.312 72.8093 120.64 71.4333 119.968C70.0573 119.296 68.8733 118.304 67.8813 116.992C66.8893 115.68 66.3933 113.968 66.3933 111.856C66.3933 108.72 67.5293 106.272 69.8013 104.512C72.0733 102.72 75.0333 101.824 78.6813 101.824C82.3933 101.824 85.3853 102.72 87.6573 104.512C89.9293 106.272 91.1453 108.736 91.3053 111.904H82.4253C82.3613 110.816 81.9613 109.968 81.2253 109.36C80.4893 108.72 79.5453 108.4 78.3932 108.4C77.4013 108.4 76.6013 108.672 75.9933 109.216C75.3853 109.728 75.0813 110.48 75.0813 111.472C75.0813 112.56 75.5933 113.408 76.6172 114.016C77.6413 114.624 79.2413 115.28 81.4173 115.984C83.5933 116.72 85.3533 117.424 86.6973 118.096C88.0733 118.768 89.2573 119.744 90.2493 121.024C91.2413 122.304 91.7373 123.952 91.7373 125.968C91.7373 127.888 91.2413 129.632 90.2493 131.2C89.2893 132.768 87.8813 134.016 86.0253 134.944C84.1693 135.872 81.9773 136.336 79.4493 136.336ZM113.157 136L104.997 124.768V136H96.7885V100.48H104.997V120.112L113.109 109.216H123.237L112.101 122.656L123.333 136H113.157ZM130.588 106.432C129.148 106.432 127.964 106.016 127.036 105.184C126.14 104.32 125.692 103.264 125.692 102.016C125.692 100.736 126.14 99.68 127.036 98.848C127.964 97.984 129.148 97.552 130.588 97.552C131.996 97.552 133.148 97.984 134.044 98.848C134.972 99.68 135.436 100.736 135.436 102.016C135.436 103.264 134.972 104.32 134.044 105.184C133.148 106.016 131.996 106.432 130.588 106.432ZM134.668 109.216V136H126.46V109.216H134.668ZM148.825 100.48V136H140.617V100.48H148.825ZM162.981 100.48V136H154.773V100.48H162.981ZM179.825 136.384C177.489 136.384 175.409 135.984 173.585 135.184C171.761 134.384 170.321 133.296 169.265 131.92C168.209 130.512 167.617 128.944 167.489 127.216H175.601C175.697 128.144 176.129 128.896 176.897 129.472C177.665 130.048 178.609 130.336 179.729 130.336C180.753 130.336 181.537 130.144 182.081 129.76C182.657 129.344 182.945 128.816 182.945 128.176C182.945 127.408 182.545 126.848 181.745 126.496C180.945 126.112 179.649 125.696 177.857 125.248C175.937 124.8 174.337 124.336 173.057 123.856C171.777 123.344 170.673 122.56 169.745 121.504C168.817 120.416 168.353 118.96 168.353 117.136C168.353 115.6 168.769 114.208 169.601 112.96C170.465 111.68 171.713 110.672 173.345 109.936C175.009 109.2 176.977 108.832 179.249 108.832C182.609 108.832 185.249 109.664 187.169 111.328C189.121 112.992 190.241 115.2 190.529 117.952H182.945C182.817 117.024 182.401 116.288 181.697 115.744C181.025 115.2 180.129 114.928 179.009 114.928C178.049 114.928 177.313 115.12 176.801 115.504C176.289 115.856 176.033 116.352 176.033 116.992C176.033 117.76 176.433 118.336 177.233 118.72C178.065 119.104 179.345 119.488 181.073 119.872C183.057 120.384 184.673 120.896 185.921 121.408C187.169 121.888 188.257 122.688 189.185 123.808C190.145 124.896 190.641 126.368 190.673 128.224C190.673 129.792 190.225 131.2 189.329 132.448C188.465 133.664 187.201 134.624 185.537 135.328C183.905 136.032 182.001 136.384 179.825 136.384Z" fill="#43DD3E"/>
<defs>
<filter id="filter0_d_138_260" x="-25.4033" y="0.97821" width="308.84" height="278.36" filterUnits="userSpaceOnUse" color-interpolation-filters="sRGB">
<feFlood flood-opacity="0" result="BackgroundImageFix"/>
<feColorMatrix in="SourceAlpha" type="matrix" values="0 0 0 0 0 0 0 0 0 0 0 0 0 0 0 0 0 0 127 0" result="hardAlpha"/>
<feOffset dy="4"/>
<feGaussianBlur stdDeviation="25"/>
<feComposite in2="hardAlpha" operator="out"/>
<feColorMatrix type="matrix" values="0 0 0 0 0 0 0 0 0 0 0 0 0 0 0 0 0 0 0.25 0"/>
<feBlend mode="normal" in2="BackgroundImageFix" result="effect1_dropShadow_138_260"/>
<feBlend mode="normal" in="SourceGraphic" in2="effect1_dropShadow_138_260" result="shape"/>
</filter>
</defs>
</svg>
